PathFileType	4	(X/Y/Z)	\\Move.snu.ac.kr\motion\Animal\091204_091205_Bird\091205_bird\Project 2\Capture day 2\Session 1\pigeon_024.trc
DataRate	CameraRate	NumFrames	NumMarkers	Units	OrigDataRate	OrigDataStartFrame	OrigNumFrames
240.0	240.0	13	14	mm	240.0	250	1929
Frame#	Time	14MarkersBird:Head			14MarkersBird:C_back			14MarkersBird:Spine			14MarkersBird:L-shoulder			14MarkersBird:L-elbow			14MarkersBird:L-wrist			14MarkersBird:L-hand			14MarkersBird:R-shoulder			14MarkersBird:R-elbow			14MarkersBird:R-Wrist			14MarkersBird:R-hand			14MarkersBird:C_Tail			14MarkersBird:L-Tale			14MarkersBird:R-Tale			
		X1	Y1	Z1	X2	Y2	Z2	X3	Y3	Z3	X4	Y4	Z4	X5	Y5	Z5	X6	Y6	Z6	X7	Y7	Z7	X8	Y8	Z8	X9	Y9	Z9	X10	Y10	Z10	X11	Y11	Z11	X12	Y12	Z12	X13	Y13	Z13	X14	Y14	Z14	

1136	4.729	1029.00024	924.20844	-594.30682	1003.21600	930.61798	-651.53479	971.82666	920.73627	-696.17133	1033.97070	920.67578	-634.19733	1046.83118	906.08856	-661.34711	1070.28259	884.90570	-628.79272	1084.50159	864.43915	-619.43750	997.18768	923.91089	-609.98987	970.63965	919.93921	-608.33649	984.38959	896.07959	-575.48157	980.06171	871.74359	-547.51147	917.27985	841.27808	-775.77423	1024.25720	864.03113	-768.73932	861.49158	897.97339	-681.51624	
1137	4.733	1037.53113	919.28485	-581.01215	1011.39191	926.36688	-638.26001	979.82141	915.33722	-682.61786	1042.39197	916.51575	-621.02209	1053.50586	900.71667	-649.34698	1075.68445	883.11401	-614.02942	1084.96936	861.27240	-601.49890	1005.59985	919.63141	-596.73627	978.27386	915.22327	-596.82648	996.20734	893.83850	-565.01740	996.94287	865.84808	-539.02551	923.97144	835.13843	-760.47314	1030.75720	856.59131	-755.14905	869.62354	891.86096	-667.11462	
1138	4.738	1046.14038	914.33813	-567.45319	1019.70288	921.67584	-624.66510	987.96106	909.84686	-668.82123	1050.76599	912.15826	-607.74762	1060.06470	896.76685	-638.12164	1082.73145	883.35455	-601.68402	1088.26880	860.91003	-587.22955	1013.96161	915.08276	-583.40875	985.42834	912.02753	-585.92737	1005.74194	894.57507	-554.09045	1009.55524	863.89868	-529.93677	930.94574	829.57336	-745.59106	1037.10083	848.76813	-741.34985	878.02655	884.42792	-652.67383	
1139	4.742	1054.83936	909.39081	-553.67102	1028.18347	916.47363	-610.70325	996.30121	904.39545	-654.86700	1059.04346	907.41833	-594.35455	1066.42383	894.33490	-627.36127	1091.20361	884.97699	-591.52911	1094.82788	861.92865	-576.77203	1022.35406	910.27429	-570.03717	992.44159	910.27087	-575.64880	1013.17023	897.38092	-542.52527	1017.50940	864.83588	-519.94122	938.34180	824.15100	-730.90442	1043.23535	840.61035	-727.36951	886.70709	876.23267	-638.50891	
1140	4.746	1063.62292	904.47791	-539.75983	1036.80945	910.79468	-596.37830	1004.85529	898.98663	-640.82574	1067.22852	902.24957	-580.78284	1072.30798	893.29883	-616.43445	1100.48474	887.54089	-582.97913	1103.99402	863.35498	-569.98438	1030.89526	905.30255	-556.65045	1000.07843	909.61658	-566.00177	1019.05670	901.42670	-530.55939	1021.21259	867.70221	-509.42004	946.21393	818.47650	-716.20374	1049.30652	832.40619	-713.30969	895.55634	868.18866	-624.94720	
1141	4.750	1072.47607	899.61938	-525.83264	1045.50891	904.75952	-581.75970	1013.59509	893.53119	-626.74225	1075.38428	896.75781	-566.96167	1077.42590	893.22180	-604.60468	1109.67041	890.81659	-575.21509	1114.22791	865.11719	-566.51984	1039.70471	900.25555	-543.28265	1009.25104	909.47614	-556.87384	1024.28076	906.03522	-518.79767	1021.67834	872.03064	-499.22144	954.54004	812.37903	-701.43610	1055.69946	824.67810	-699.34253	904.37427	861.25507	-612.17377	
1142	4.754	1081.37561	894.79541	-511.97656	1054.20520	898.52948	-566.98871	1022.46808	887.95007	-612.65448	1083.58569	891.10712	-552.87262	1081.63794	893.37939	-591.35583	1117.79492	894.60052	-567.34076	1123.64282	867.91937	-565.57916	1048.86230	895.19690	-530.00079	1020.47968	909.09833	-548.01276	1029.92468	910.56403	-507.96094	1020.36047	877.93280	-490.32690	963.26935	805.96405	-686.76019	1062.93542	818.06195	-685.67700	912.99951	856.06732	-600.12219	
1143	4.758	1090.29138	889.97156	-498.23056	1062.85303	892.24976	-552.26923	1031.41650	882.22235	-598.61115	1091.83545	885.37439	-538.61804	1085.08118	892.95251	-576.60370	1124.22839	898.49316	-558.54901	1130.74829	872.60974	-565.58124	1058.33374	890.13116	-516.89276	1033.55444	907.72229	-539.08557	1036.99719	914.34430	-498.44986	1019.00726	885.76660	-483.54361	972.35931	799.48248	-672.47125	1071.45239	813.14874	-672.48291	921.42053	852.74463	-588.48541	
1144	4.762	1099.19299	885.12103	-484.58530	1071.42432	886.01489	-537.79974	1040.37305	876.34406	-584.65631	1100.05212	879.51727	-524.42419	1088.23682	891.31281	-560.71973	1129.03931	901.86255	-548.32581	1135.11670	879.54028	-564.38947	1067.93848	884.96082	-503.99149	1047.67188	904.80780	-529.76123	1045.94177	916.82660	-490.05872	1019.50232	895.64050	-479.24265	981.79199	793.16199	-658.84747	1081.38110	810.28009	-659.76434	929.78156	851.00067	-576.85773	
1145	4.767	1108.04773	880.20453	-471.00153	1079.93164	879.85370	-523.66571	1049.24304	870.25909	-570.80951	1108.17505	873.48242	-510.52017	1091.88757	888.23950	-544.34601	1133.04089	904.05499	-536.68835	1137.48291	888.27264	-560.14801	1077.40906	879.53558	-491.20538	1061.83533	900.23132	-519.75482	1056.34326	917.81598	-482.07782	1023.55243	907.01239	-477.04794	991.56281	787.13904	-646.04938	1092.44800	809.29102	-647.27252	938.28717	850.32251	-564.87695	
1146	4.771	1116.83191	875.16937	-457.44904	1088.42615	873.71289	-509.81180	1057.97192	863.91846	-557.03113	1116.28601	867.31183	-496.98727	1096.95227	883.88330	-528.15521	1137.46533	904.66656	-524.26886	1139.23315	897.66498	-552.01508	1086.49304	873.76141	-478.33429	1075.16699	894.31305	-508.73712	1067.14478	917.53394	-473.64520	1031.98987	918.63312	-475.68411	1001.64105	781.54651	-634.13507	1104.09021	809.41418	-634.60541	947.06653	850.01923	-552.26892	
1147	4.775	1125.54846	869.97815	-443.93814	1096.93652	867.48871	-496.15479	1066.48767	857.38226	-543.37262	1124.57849	861.12177	-483.74905	1104.12366	878.67432	-512.58502	1143.43555	903.56812	-512.04675	1141.91101	906.11530	-540.38007	1095.03455	867.64728	-465.16153	1087.05798	887.71655	-496.25833	1077.08423	916.31250	-464.07596	1044.03748	928.91675	-473.14395	1011.92517	776.68927	-623.13715	1115.69983	809.50299	-621.43054	956.06097	849.22388	-538.82343	
1148	4.779	1134.22754	864.62732	-430.50696	1105.41431	861.10944	-482.68408	1074.55713	850.55029	-530.08087	1133.16504	854.99945	-470.69556	1113.49243	873.13409	-497.76331	1151.53955	900.65509	-500.82306	1147.06641	911.86932	-526.67902	1103.02783	861.29907	-451.56375	1097.21704	881.27942	-481.95313	1085.09839	914.17285	-452.96304	1057.26001	936.43243	-467.19647	1022.21289	773.10938	-613.05408	1126.87402	808.46515	-607.61078	965.02985	847.02118	-524.40790	
